<?xml version="1.0" encoding="utf-8" standalone="no"?>
<!DOCTYPE svg PUBLIC "-//W3C//DTD SVG 1.1//EN"
  "http://www.w3.org/Graphics/SVG/1.1/DTD/svg11.dtd">
<svg xmlns:xlink="http://www.w3.org/1999/xlink" width="1152pt" height="720pt" viewBox="0 0 1152 720" xmlns="http://www.w3.org/2000/svg" version="1.1">
 <metadata>
  <rdf:RDF xmlns:dc="http://purl.org/dc/elements/1.1/" xmlns:cc="http://creativecommons.org/ns#" xmlns:rdf="http://www.w3.org/1999/02/22-rdf-syntax-ns#">
   <cc:Work>
    <dc:type rdf:resource="http://purl.org/dc/dcmitype/StillImage"/>
    <dc:date>2024-05-06T02:03:49.215691</dc:date>
    <dc:format>image/svg+xml</dc:format>
    <dc:creator>
     <cc:Agent>
      <dc:title>Matplotlib v3.8.3, https://matplotlib.org/</dc:title>
     </cc:Agent>
    </dc:creator>
   </cc:Work>
  </rdf:RDF>
 </metadata>
 <defs>
  <style type="text/css">*{stroke-linejoin: round; stroke-linecap: butt}</style>
 </defs>
 <g id="figure_1">
  <g id="patch_1">
   <path d="M 0 720 
L 1152 720 
L 1152 0 
L 0 0 
z
" style="fill: #ffffff"/>
  </g>
  <g id="axes_1">
   <g id="patch_2">
    <path d="M 144 640.8 
L 1036.8 640.8 
L 1036.8 86.4 
L 144 86.4 
z
" style="fill: #ffffff"/>
   </g>
   <g id="matplotlib.axis_1">
    <g id="xtick_1">
     <g id="line2d_1">
      <path d="M 144 640.8 
L 144 86.4 
" clip-path="url(#p0593d181ac)" style="fill: none; stroke: #444444; stroke-linecap: square"/>
     </g>
     <g id="line2d_2">
      <defs>
       <path id="m637450e4f0" d="M 0 0 
L 0 3.5 
" style="stroke: #000000; stroke-width: 0.8"/>
      </defs>
      <g>
       <use xlink:href="#m637450e4f0" x="144" y="640.8" style="stroke: #000000; stroke-width: 0.8"/>
      </g>
     </g>
     <g id="text_1">
      <!-- 0 -->
      <g transform="translate(140.81875 655.398438) scale(0.1 -0.1)">
       <defs>
        <path id="DejaVuSans-30" d="M 2034 4250 
Q 1547 4250 1301 3770 
Q 1056 3291 1056 2328 
Q 1056 1369 1301 889 
Q 1547 409 2034 409 
Q 2525 409 2770 889 
Q 3016 1369 3016 2328 
Q 3016 3291 2770 3770 
Q 2525 4250 2034 4250 
z
M 2034 4750 
Q 2819 4750 3233 4129 
Q 3647 3509 3647 2328 
Q 3647 1150 3233 529 
Q 2819 -91 2034 -91 
Q 1250 -91 836 529 
Q 422 1150 422 2328 
Q 422 3509 836 4129 
Q 1250 4750 2034 4750 
z
" transform="scale(0.015625)"/>
       </defs>
       <use xlink:href="#DejaVuSans-30"/>
      </g>
     </g>
    </g>
    <g id="xtick_2">
     <g id="line2d_3">
      <path d="M 271.542857 640.8 
L 271.542857 86.4 
" clip-path="url(#p0593d181ac)" style="fill: none; stroke: #444444; stroke-linecap: square"/>
     </g>
     <g id="line2d_4">
      <g>
       <use xlink:href="#m637450e4f0" x="271.542857" y="640.8" style="stroke: #000000; stroke-width: 0.8"/>
      </g>
     </g>
     <g id="text_2">
      <!-- 2 -->
      <g transform="translate(268.361607 655.398438) scale(0.1 -0.1)">
       <defs>
        <path id="DejaVuSans-32" d="M 1228 531 
L 3431 531 
L 3431 0 
L 469 0 
L 469 531 
Q 828 903 1448 1529 
Q 2069 2156 2228 2338 
Q 2531 2678 2651 2914 
Q 2772 3150 2772 3378 
Q 2772 3750 2511 3984 
Q 2250 4219 1831 4219 
Q 1534 4219 1204 4116 
Q 875 4013 500 3803 
L 500 4441 
Q 881 4594 1212 4672 
Q 1544 4750 1819 4750 
Q 2544 4750 2975 4387 
Q 3406 4025 3406 3419 
Q 3406 3131 3298 2873 
Q 3191 2616 2906 2266 
Q 2828 2175 2409 1742 
Q 1991 1309 1228 531 
z
" transform="scale(0.015625)"/>
       </defs>
       <use xlink:href="#DejaVuSans-32"/>
      </g>
     </g>
    </g>
    <g id="xtick_3">
     <g id="line2d_5">
      <path d="M 399.085714 640.8 
L 399.085714 86.4 
" clip-path="url(#p0593d181ac)" style="fill: none; stroke: #444444; stroke-linecap: square"/>
     </g>
     <g id="line2d_6">
      <g>
       <use xlink:href="#m637450e4f0" x="399.085714" y="640.8" style="stroke: #000000; stroke-width: 0.8"/>
      </g>
     </g>
     <g id="text_3">
      <!-- 4 -->
      <g transform="translate(395.904464 655.398438) scale(0.1 -0.1)">
       <defs>
        <path id="DejaVuSans-34" d="M 2419 4116 
L 825 1625 
L 2419 1625 
L 2419 4116 
z
M 2253 4666 
L 3047 4666 
L 3047 1625 
L 3713 1625 
L 3713 1100 
L 3047 1100 
L 3047 0 
L 2419 0 
L 2419 1100 
L 313 1100 
L 313 1709 
L 2253 4666 
z
" transform="scale(0.015625)"/>
       </defs>
       <use xlink:href="#DejaVuSans-34"/>
      </g>
     </g>
    </g>
    <g id="xtick_4">
     <g id="line2d_7">
      <path d="M 526.628571 640.8 
L 526.628571 86.4 
" clip-path="url(#p0593d181ac)" style="fill: none; stroke: #444444; stroke-linecap: square"/>
     </g>
     <g id="line2d_8">
      <g>
       <use xlink:href="#m637450e4f0" x="526.628571" y="640.8" style="stroke: #000000; stroke-width: 0.8"/>
      </g>
     </g>
     <g id="text_4">
      <!-- 6 -->
      <g transform="translate(523.447321 655.398438) scale(0.1 -0.1)">
       <defs>
        <path id="DejaVuSans-36" d="M 2113 2584 
Q 1688 2584 1439 2293 
Q 1191 2003 1191 1497 
Q 1191 994 1439 701 
Q 1688 409 2113 409 
Q 2538 409 2786 701 
Q 3034 994 3034 1497 
Q 3034 2003 2786 2293 
Q 2538 2584 2113 2584 
z
M 3366 4563 
L 3366 3988 
Q 3128 4100 2886 4159 
Q 2644 4219 2406 4219 
Q 1781 4219 1451 3797 
Q 1122 3375 1075 2522 
Q 1259 2794 1537 2939 
Q 1816 3084 2150 3084 
Q 2853 3084 3261 2657 
Q 3669 2231 3669 1497 
Q 3669 778 3244 343 
Q 2819 -91 2113 -91 
Q 1303 -91 875 529 
Q 447 1150 447 2328 
Q 447 3434 972 4092 
Q 1497 4750 2381 4750 
Q 2619 4750 2861 4703 
Q 3103 4656 3366 4563 
z
" transform="scale(0.015625)"/>
       </defs>
       <use xlink:href="#DejaVuSans-36"/>
      </g>
     </g>
    </g>
    <g id="xtick_5">
     <g id="line2d_9">
      <path d="M 654.171429 640.8 
L 654.171429 86.4 
" clip-path="url(#p0593d181ac)" style="fill: none; stroke: #444444; stroke-linecap: square"/>
     </g>
     <g id="line2d_10">
      <g>
       <use xlink:href="#m637450e4f0" x="654.171429" y="640.8" style="stroke: #000000; stroke-width: 0.8"/>
      </g>
     </g>
     <g id="text_5">
      <!-- 8 -->
      <g transform="translate(650.990179 655.398438) scale(0.1 -0.1)">
       <defs>
        <path id="DejaVuSans-38" d="M 2034 2216 
Q 1584 2216 1326 1975 
Q 1069 1734 1069 1313 
Q 1069 891 1326 650 
Q 1584 409 2034 409 
Q 2484 409 2743 651 
Q 3003 894 3003 1313 
Q 3003 1734 2745 1975 
Q 2488 2216 2034 2216 
z
M 1403 2484 
Q 997 2584 770 2862 
Q 544 3141 544 3541 
Q 544 4100 942 4425 
Q 1341 4750 2034 4750 
Q 2731 4750 3128 4425 
Q 3525 4100 3525 3541 
Q 3525 3141 3298 2862 
Q 3072 2584 2669 2484 
Q 3125 2378 3379 2068 
Q 3634 1759 3634 1313 
Q 3634 634 3220 271 
Q 2806 -91 2034 -91 
Q 1263 -91 848 271 
Q 434 634 434 1313 
Q 434 1759 690 2068 
Q 947 2378 1403 2484 
z
M 1172 3481 
Q 1172 3119 1398 2916 
Q 1625 2713 2034 2713 
Q 2441 2713 2670 2916 
Q 2900 3119 2900 3481 
Q 2900 3844 2670 4047 
Q 2441 4250 2034 4250 
Q 1625 4250 1398 4047 
Q 1172 3844 1172 3481 
z
" transform="scale(0.015625)"/>
       </defs>
       <use xlink:href="#DejaVuSans-38"/>
      </g>
     </g>
    </g>
    <g id="xtick_6">
     <g id="line2d_11">
      <path d="M 781.714286 640.8 
L 781.714286 86.4 
" clip-path="url(#p0593d181ac)" style="fill: none; stroke: #444444; stroke-linecap: square"/>
     </g>
     <g id="line2d_12">
      <g>
       <use xlink:href="#m637450e4f0" x="781.714286" y="640.8" style="stroke: #000000; stroke-width: 0.8"/>
      </g>
     </g>
     <g id="text_6">
      <!-- 10 -->
      <g transform="translate(775.351786 655.398438) scale(0.1 -0.1)">
       <defs>
        <path id="DejaVuSans-31" d="M 794 531 
L 1825 531 
L 1825 4091 
L 703 3866 
L 703 4441 
L 1819 4666 
L 2450 4666 
L 2450 531 
L 3481 531 
L 3481 0 
L 794 0 
L 794 531 
z
" transform="scale(0.015625)"/>
       </defs>
       <use xlink:href="#DejaVuSans-31"/>
       <use xlink:href="#DejaVuSans-30" x="63.623047"/>
      </g>
     </g>
    </g>
    <g id="xtick_7">
     <g id="line2d_13">
      <path d="M 909.257143 640.8 
L 909.257143 86.4 
" clip-path="url(#p0593d181ac)" style="fill: none; stroke: #444444; stroke-linecap: square"/>
     </g>
     <g id="line2d_14">
      <g>
       <use xlink:href="#m637450e4f0" x="909.257143" y="640.8" style="stroke: #000000; stroke-width: 0.8"/>
      </g>
     </g>
     <g id="text_7">
      <!-- 12 -->
      <g transform="translate(902.894643 655.398438) scale(0.1 -0.1)">
       <use xlink:href="#DejaVuSans-31"/>
       <use xlink:href="#DejaVuSans-32" x="63.623047"/>
      </g>
     </g>
    </g>
    <g id="xtick_8">
     <g id="line2d_15">
      <path d="M 1036.8 640.8 
L 1036.8 86.4 
" clip-path="url(#p0593d181ac)" style="fill: none; stroke: #444444; stroke-linecap: square"/>
     </g>
     <g id="line2d_16">
      <g>
       <use xlink:href="#m637450e4f0" x="1036.8" y="640.8" style="stroke: #000000; stroke-width: 0.8"/>
      </g>
     </g>
     <g id="text_8">
      <!-- 14 -->
      <g transform="translate(1030.4375 655.398438) scale(0.1 -0.1)">
       <use xlink:href="#DejaVuSans-31"/>
       <use xlink:href="#DejaVuSans-34" x="63.623047"/>
      </g>
     </g>
    </g>
    <g id="xtick_9">
     <g id="line2d_17">
      <path d="M 175.885714 640.8 
L 175.885714 86.4 
" clip-path="url(#p0593d181ac)" style="fill: none; stroke-dasharray: 1,1.65; stroke-dashoffset: 0; stroke: #aaaaaa"/>
     </g>
     <g id="line2d_18">
      <defs>
       <path id="m88065782ca" d="M 0 0 
L 0 2 
" style="stroke: #000000; stroke-width: 0.6"/>
      </defs>
      <g>
       <use xlink:href="#m88065782ca" x="175.885714" y="640.8" style="stroke: #000000; stroke-width: 0.6"/>
      </g>
     </g>
    </g>
    <g id="xtick_10">
     <g id="line2d_19">
      <path d="M 207.771429 640.8 
L 207.771429 86.4 
" clip-path="url(#p0593d181ac)" style="fill: none; stroke-dasharray: 1,1.65; stroke-dashoffset: 0; stroke: #aaaaaa"/>
     </g>
     <g id="line2d_20">
      <g>
       <use xlink:href="#m88065782ca" x="207.771429" y="640.8" style="stroke: #000000; stroke-width: 0.6"/>
      </g>
     </g>
    </g>
    <g id="xtick_11">
     <g id="line2d_21">
      <path d="M 239.657143 640.8 
L 239.657143 86.4 
" clip-path="url(#p0593d181ac)" style="fill: none; stroke-dasharray: 1,1.65; stroke-dashoffset: 0; stroke: #aaaaaa"/>
     </g>
     <g id="line2d_22">
      <g>
       <use xlink:href="#m88065782ca" x="239.657143" y="640.8" style="stroke: #000000; stroke-width: 0.6"/>
      </g>
     </g>
    </g>
    <g id="xtick_12">
     <g id="line2d_23">
      <path d="M 303.428571 640.8 
L 303.428571 86.4 
" clip-path="url(#p0593d181ac)" style="fill: none; stroke-dasharray: 1,1.65; stroke-dashoffset: 0; stroke: #aaaaaa"/>
     </g>
     <g id="line2d_24">
      <g>
       <use xlink:href="#m88065782ca" x="303.428571" y="640.8" style="stroke: #000000; stroke-width: 0.6"/>
      </g>
     </g>
    </g>
    <g id="xtick_13">
     <g id="line2d_25">
      <path d="M 335.314286 640.8 
L 335.314286 86.4 
" clip-path="url(#p0593d181ac)" style="fill: none; stroke-dasharray: 1,1.65; stroke-dashoffset: 0; stroke: #aaaaaa"/>
     </g>
     <g id="line2d_26">
      <g>
       <use xlink:href="#m88065782ca" x="335.314286" y="640.8" style="stroke: #000000; stroke-width: 0.6"/>
      </g>
     </g>
    </g>
    <g id="xtick_14">
     <g id="line2d_27">
      <path d="M 367.2 640.8 
L 367.2 86.4 
" clip-path="url(#p0593d181ac)" style="fill: none; stroke-dasharray: 1,1.65; stroke-dashoffset: 0; stroke: #aaaaaa"/>
     </g>
     <g id="line2d_28">
      <g>
       <use xlink:href="#m88065782ca" x="367.2" y="640.8" style="stroke: #000000; stroke-width: 0.6"/>
      </g>
     </g>
    </g>
    <g id="xtick_15">
     <g id="line2d_29">
      <path d="M 430.971429 640.8 
L 430.971429 86.4 
" clip-path="url(#p0593d181ac)" style="fill: none; stroke-dasharray: 1,1.65; stroke-dashoffset: 0; stroke: #aaaaaa"/>
     </g>
     <g id="line2d_30">
      <g>
       <use xlink:href="#m88065782ca" x="430.971429" y="640.8" style="stroke: #000000; stroke-width: 0.6"/>
      </g>
     </g>
    </g>
    <g id="xtick_16">
     <g id="line2d_31">
      <path d="M 462.857143 640.8 
L 462.857143 86.4 
" clip-path="url(#p0593d181ac)" style="fill: none; stroke-dasharray: 1,1.65; stroke-dashoffset: 0; stroke: #aaaaaa"/>
     </g>
     <g id="line2d_32">
      <g>
       <use xlink:href="#m88065782ca" x="462.857143" y="640.8" style="stroke: #000000; stroke-width: 0.6"/>
      </g>
     </g>
    </g>
    <g id="xtick_17">
     <g id="line2d_33">
      <path d="M 494.742857 640.8 
L 494.742857 86.4 
" clip-path="url(#p0593d181ac)" style="fill: none; stroke-dasharray: 1,1.65; stroke-dashoffset: 0; stroke: #aaaaaa"/>
     </g>
     <g id="line2d_34">
      <g>
       <use xlink:href="#m88065782ca" x="494.742857" y="640.8" style="stroke: #000000; stroke-width: 0.6"/>
      </g>
     </g>
    </g>
    <g id="xtick_18">
     <g id="line2d_35">
      <path d="M 558.514286 640.8 
L 558.514286 86.4 
" clip-path="url(#p0593d181ac)" style="fill: none; stroke-dasharray: 1,1.65; stroke-dashoffset: 0; stroke: #aaaaaa"/>
     </g>
     <g id="line2d_36">
      <g>
       <use xlink:href="#m88065782ca" x="558.514286" y="640.8" style="stroke: #000000; stroke-width: 0.6"/>
      </g>
     </g>
    </g>
    <g id="xtick_19">
     <g id="line2d_37">
      <path d="M 590.4 640.8 
L 590.4 86.4 
" clip-path="url(#p0593d181ac)" style="fill: none; stroke-dasharray: 1,1.65; stroke-dashoffset: 0; stroke: #aaaaaa"/>
     </g>
     <g id="line2d_38">
      <g>
       <use xlink:href="#m88065782ca" x="590.4" y="640.8" style="stroke: #000000; stroke-width: 0.6"/>
      </g>
     </g>
    </g>
    <g id="xtick_20">
     <g id="line2d_39">
      <path d="M 622.285714 640.8 
L 622.285714 86.4 
" clip-path="url(#p0593d181ac)" style="fill: none; stroke-dasharray: 1,1.65; stroke-dashoffset: 0; stroke: #aaaaaa"/>
     </g>
     <g id="line2d_40">
      <g>
       <use xlink:href="#m88065782ca" x="622.285714" y="640.8" style="stroke: #000000; stroke-width: 0.6"/>
      </g>
     </g>
    </g>
    <g id="xtick_21">
     <g id="line2d_41">
      <path d="M 686.057143 640.8 
L 686.057143 86.4 
" clip-path="url(#p0593d181ac)" style="fill: none; stroke-dasharray: 1,1.65; stroke-dashoffset: 0; stroke: #aaaaaa"/>
     </g>
     <g id="line2d_42">
      <g>
       <use xlink:href="#m88065782ca" x="686.057143" y="640.8" style="stroke: #000000; stroke-width: 0.6"/>
      </g>
     </g>
    </g>
    <g id="xtick_22">
     <g id="line2d_43">
      <path d="M 717.942857 640.8 
L 717.942857 86.4 
" clip-path="url(#p0593d181ac)" style="fill: none; stroke-dasharray: 1,1.65; stroke-dashoffset: 0; stroke: #aaaaaa"/>
     </g>
     <g id="line2d_44">
      <g>
       <use xlink:href="#m88065782ca" x="717.942857" y="640.8" style="stroke: #000000; stroke-width: 0.6"/>
      </g>
     </g>
    </g>
    <g id="xtick_23">
     <g id="line2d_45">
      <path d="M 749.828571 640.8 
L 749.828571 86.4 
" clip-path="url(#p0593d181ac)" style="fill: none; stroke-dasharray: 1,1.65; stroke-dashoffset: 0; stroke: #aaaaaa"/>
     </g>
     <g id="line2d_46">
      <g>
       <use xlink:href="#m88065782ca" x="749.828571" y="640.8" style="stroke: #000000; stroke-width: 0.6"/>
      </g>
     </g>
    </g>
    <g id="xtick_24">
     <g id="line2d_47">
      <path d="M 813.6 640.8 
L 813.6 86.4 
" clip-path="url(#p0593d181ac)" style="fill: none; stroke-dasharray: 1,1.65; stroke-dashoffset: 0; stroke: #aaaaaa"/>
     </g>
     <g id="line2d_48">
      <g>
       <use xlink:href="#m88065782ca" x="813.6" y="640.8" style="stroke: #000000; stroke-width: 0.6"/>
      </g>
     </g>
    </g>
    <g id="xtick_25">
     <g id="line2d_49">
      <path d="M 845.485714 640.8 
L 845.485714 86.4 
" clip-path="url(#p0593d181ac)" style="fill: none; stroke-dasharray: 1,1.65; stroke-dashoffset: 0; stroke: #aaaaaa"/>
     </g>
     <g id="line2d_50">
      <g>
       <use xlink:href="#m88065782ca" x="845.485714" y="640.8" style="stroke: #000000; stroke-width: 0.6"/>
      </g>
     </g>
    </g>
    <g id="xtick_26">
     <g id="line2d_51">
      <path d="M 877.371429 640.8 
L 877.371429 86.4 
" clip-path="url(#p0593d181ac)" style="fill: none; stroke-dasharray: 1,1.65; stroke-dashoffset: 0; stroke: #aaaaaa"/>
     </g>
     <g id="line2d_52">
      <g>
       <use xlink:href="#m88065782ca" x="877.371429" y="640.8" style="stroke: #000000; stroke-width: 0.6"/>
      </g>
     </g>
    </g>
    <g id="xtick_27">
     <g id="line2d_53">
      <path d="M 941.142857 640.8 
L 941.142857 86.4 
" clip-path="url(#p0593d181ac)" style="fill: none; stroke-dasharray: 1,1.65; stroke-dashoffset: 0; stroke: #aaaaaa"/>
     </g>
     <g id="line2d_54">
      <g>
       <use xlink:href="#m88065782ca" x="941.142857" y="640.8" style="stroke: #000000; stroke-width: 0.6"/>
      </g>
     </g>
    </g>
    <g id="xtick_28">
     <g id="line2d_55">
      <path d="M 973.028571 640.8 
L 973.028571 86.4 
" clip-path="url(#p0593d181ac)" style="fill: none; stroke-dasharray: 1,1.65; stroke-dashoffset: 0; stroke: #aaaaaa"/>
     </g>
     <g id="line2d_56">
      <g>
       <use xlink:href="#m88065782ca" x="973.028571" y="640.8" style="stroke: #000000; stroke-width: 0.6"/>
      </g>
     </g>
    </g>
    <g id="xtick_29">
     <g id="line2d_57">
      <path d="M 1004.914286 640.8 
L 1004.914286 86.4 
" clip-path="url(#p0593d181ac)" style="fill: none; stroke-dasharray: 1,1.65; stroke-dashoffset: 0; stroke: #aaaaaa"/>
     </g>
     <g id="line2d_58">
      <g>
       <use xlink:href="#m88065782ca" x="1004.914286" y="640.8" style="stroke: #000000; stroke-width: 0.6"/>
      </g>
     </g>
    </g>
    <g id="text_9">
     <!-- Время, с -->
     <g transform="translate(568.011719 669.076563) scale(0.1 -0.1)">
      <defs>
       <path id="DejaVuSans-412" d="M 1259 2228 
L 1259 519 
L 2272 519 
Q 2781 519 3026 730 
Q 3272 941 3272 1375 
Q 3272 1813 3026 2020 
Q 2781 2228 2272 2228 
L 1259 2228 
z
M 1259 4147 
L 1259 2741 
L 2194 2741 
Q 2656 2741 2882 2914 
Q 3109 3088 3109 3444 
Q 3109 3797 2882 3972 
Q 2656 4147 2194 4147 
L 1259 4147 
z
M 628 4666 
L 2241 4666 
Q 2963 4666 3353 4366 
Q 3744 4066 3744 3513 
Q 3744 3084 3544 2831 
Q 3344 2578 2956 2516 
Q 3422 2416 3680 2098 
Q 3938 1781 3938 1306 
Q 3938 681 3513 340 
Q 3088 0 2303 0 
L 628 0 
L 628 4666 
z
" transform="scale(0.015625)"/>
       <path id="DejaVuSans-440" d="M 1159 525 
L 1159 -1331 
L 581 -1331 
L 581 3500 
L 1159 3500 
L 1159 2969 
Q 1341 3281 1617 3432 
Q 1894 3584 2278 3584 
Q 2916 3584 3314 3078 
Q 3713 2572 3713 1747 
Q 3713 922 3314 415 
Q 2916 -91 2278 -91 
Q 1894 -91 1617 61 
Q 1341 213 1159 525 
z
M 3116 1747 
Q 3116 2381 2855 2742 
Q 2594 3103 2138 3103 
Q 1681 3103 1420 2742 
Q 1159 2381 1159 1747 
Q 1159 1113 1420 752 
Q 1681 391 2138 391 
Q 2594 391 2855 752 
Q 3116 1113 3116 1747 
z
" transform="scale(0.015625)"/>
       <path id="DejaVuSans-435" d="M 3597 1894 
L 3597 1613 
L 953 1613 
Q 991 1019 1311 708 
Q 1631 397 2203 397 
Q 2534 397 2845 478 
Q 3156 559 3463 722 
L 3463 178 
Q 3153 47 2828 -22 
Q 2503 -91 2169 -91 
Q 1331 -91 842 396 
Q 353 884 353 1716 
Q 353 2575 817 3079 
Q 1281 3584 2069 3584 
Q 2775 3584 3186 3129 
Q 3597 2675 3597 1894 
z
M 3022 2063 
Q 3016 2534 2758 2815 
Q 2500 3097 2075 3097 
Q 1594 3097 1305 2825 
Q 1016 2553 972 2059 
L 3022 2063 
z
" transform="scale(0.015625)"/>
       <path id="DejaVuSans-43c" d="M 581 3500 
L 1422 3500 
L 2416 1156 
L 3413 3500 
L 4247 3500 
L 4247 0 
L 3669 0 
L 3669 2950 
L 2703 672 
L 2128 672 
L 1159 2950 
L 1159 0 
L 581 0 
L 581 3500 
z
" transform="scale(0.015625)"/>
       <path id="DejaVuSans-44f" d="M 1181 2491 
Q 1181 2231 1381 2084 
Q 1581 1938 1953 1938 
L 2728 1938 
L 2728 3041 
L 1953 3041 
Q 1581 3041 1381 2897 
Q 1181 2753 1181 2491 
z
M 363 0 
L 1431 1534 
Q 1069 1616 828 1830 
Q 588 2044 588 2491 
Q 588 2997 923 3248 
Q 1259 3500 1938 3500 
L 3306 3500 
L 3306 0 
L 2728 0 
L 2728 1478 
L 2013 1478 
L 981 0 
L 363 0 
z
" transform="scale(0.015625)"/>
       <path id="DejaVuSans-2c" d="M 750 794 
L 1409 794 
L 1409 256 
L 897 -744 
L 494 -744 
L 750 256 
L 750 794 
z
" transform="scale(0.015625)"/>
       <path id="DejaVuSans-20" transform="scale(0.015625)"/>
       <path id="DejaVuSans-441" d="M 3122 3366 
L 3122 2828 
Q 2878 2963 2633 3030 
Q 2388 3097 2138 3097 
Q 1578 3097 1268 2742 
Q 959 2388 959 1747 
Q 959 1106 1268 751 
Q 1578 397 2138 397 
Q 2388 397 2633 464 
Q 2878 531 3122 666 
L 3122 134 
Q 2881 22 2623 -34 
Q 2366 -91 2075 -91 
Q 1284 -91 818 406 
Q 353 903 353 1747 
Q 353 2603 823 3093 
Q 1294 3584 2113 3584 
Q 2378 3584 2631 3529 
Q 2884 3475 3122 3366 
z
" transform="scale(0.015625)"/>
      </defs>
      <use xlink:href="#DejaVuSans-412"/>
      <use xlink:href="#DejaVuSans-440" x="68.603516"/>
      <use xlink:href="#DejaVuSans-435" x="132.080078"/>
      <use xlink:href="#DejaVuSans-43c" x="193.603516"/>
      <use xlink:href="#DejaVuSans-44f" x="269.042969"/>
      <use xlink:href="#DejaVuSans-2c" x="329.199219"/>
      <use xlink:href="#DejaVuSans-20" x="360.986328"/>
      <use xlink:href="#DejaVuSans-441" x="392.773438"/>
     </g>
    </g>
   </g>
   <g id="matplotlib.axis_2">
    <g id="ytick_1">
     <g id="line2d_59">
      <path d="M 144 640.8 
L 1036.8 640.8 
" clip-path="url(#p0593d181ac)" style="fill: none; stroke: #444444; stroke-linecap: square"/>
     </g>
     <g id="line2d_60">
      <defs>
       <path id="m7799400983" d="M 0 0 
L -3.5 0 
" style="stroke: #000000; stroke-width: 0.8"/>
      </defs>
      <g>
       <use xlink:href="#m7799400983" x="144" y="640.8" style="stroke: #000000; stroke-width: 0.8"/>
      </g>
     </g>
     <g id="text_10">
      <!-- 0.0 -->
      <g transform="translate(121.096875 644.599219) scale(0.1 -0.1)">
       <defs>
        <path id="DejaVuSans-2e" d="M 684 794 
L 1344 794 
L 1344 0 
L 684 0 
L 684 794 
z
" transform="scale(0.015625)"/>
       </defs>
       <use xlink:href="#DejaVuSans-30"/>
       <use xlink:href="#DejaVuSans-2e" x="63.623047"/>
       <use xlink:href="#DejaVuSans-30" x="95.410156"/>
      </g>
     </g>
    </g>
    <g id="ytick_2">
     <g id="line2d_61">
      <path d="M 144 561.6 
L 1036.8 561.6 
" clip-path="url(#p0593d181ac)" style="fill: none; stroke: #444444; stroke-linecap: square"/>
     </g>
     <g id="line2d_62">
      <g>
       <use xlink:href="#m7799400983" x="144" y="561.6" style="stroke: #000000; stroke-width: 0.8"/>
      </g>
     </g>
     <g id="text_11">
      <!-- 0.5 -->
      <g transform="translate(121.096875 565.399219) scale(0.1 -0.1)">
       <defs>
        <path id="DejaVuSans-35" d="M 691 4666 
L 3169 4666 
L 3169 4134 
L 1269 4134 
L 1269 2991 
Q 1406 3038 1543 3061 
Q 1681 3084 1819 3084 
Q 2600 3084 3056 2656 
Q 3513 2228 3513 1497 
Q 3513 744 3044 326 
Q 2575 -91 1722 -91 
Q 1428 -91 1123 -41 
Q 819 9 494 109 
L 494 744 
Q 775 591 1075 516 
Q 1375 441 1709 441 
Q 2250 441 2565 725 
Q 2881 1009 2881 1497 
Q 2881 1984 2565 2268 
Q 2250 2553 1709 2553 
Q 1456 2553 1204 2497 
Q 953 2441 691 2322 
L 691 4666 
z
" transform="scale(0.015625)"/>
       </defs>
       <use xlink:href="#DejaVuSans-30"/>
       <use xlink:href="#DejaVuSans-2e" x="63.623047"/>
       <use xlink:href="#DejaVuSans-35" x="95.410156"/>
      </g>
     </g>
    </g>
    <g id="ytick_3">
     <g id="line2d_63">
      <path d="M 144 482.4 
L 1036.8 482.4 
" clip-path="url(#p0593d181ac)" style="fill: none; stroke: #444444; stroke-linecap: square"/>
     </g>
     <g id="line2d_64">
      <g>
       <use xlink:href="#m7799400983" x="144" y="482.4" style="stroke: #000000; stroke-width: 0.8"/>
      </g>
     </g>
     <g id="text_12">
      <!-- 1.0 -->
      <g transform="translate(121.096875 486.199219) scale(0.1 -0.1)">
       <use xlink:href="#DejaVuSans-31"/>
       <use xlink:href="#DejaVuSans-2e" x="63.623047"/>
       <use xlink:href="#DejaVuSans-30" x="95.410156"/>
      </g>
     </g>
    </g>
    <g id="ytick_4">
     <g id="line2d_65">
      <path d="M 144 403.2 
L 1036.8 403.2 
" clip-path="url(#p0593d181ac)" style="fill: none; stroke: #444444; stroke-linecap: square"/>
     </g>
     <g id="line2d_66">
      <g>
       <use xlink:href="#m7799400983" x="144" y="403.2" style="stroke: #000000; stroke-width: 0.8"/>
      </g>
     </g>
     <g id="text_13">
      <!-- 1.5 -->
      <g transform="translate(121.096875 406.999219) scale(0.1 -0.1)">
       <use xlink:href="#DejaVuSans-31"/>
       <use xlink:href="#DejaVuSans-2e" x="63.623047"/>
       <use xlink:href="#DejaVuSans-35" x="95.410156"/>
      </g>
     </g>
    </g>
    <g id="ytick_5">
     <g id="line2d_67">
      <path d="M 144 324 
L 1036.8 324 
" clip-path="url(#p0593d181ac)" style="fill: none; stroke: #444444; stroke-linecap: square"/>
     </g>
     <g id="line2d_68">
      <g>
       <use xlink:href="#m7799400983" x="144" y="324" style="stroke: #000000; stroke-width: 0.8"/>
      </g>
     </g>
     <g id="text_14">
      <!-- 2.0 -->
      <g transform="translate(121.096875 327.799219) scale(0.1 -0.1)">
       <use xlink:href="#DejaVuSans-32"/>
       <use xlink:href="#DejaVuSans-2e" x="63.623047"/>
       <use xlink:href="#DejaVuSans-30" x="95.410156"/>
      </g>
     </g>
    </g>
    <g id="ytick_6">
     <g id="line2d_69">
      <path d="M 144 244.8 
L 1036.8 244.8 
" clip-path="url(#p0593d181ac)" style="fill: none; stroke: #444444; stroke-linecap: square"/>
     </g>
     <g id="line2d_70">
      <g>
       <use xlink:href="#m7799400983" x="144" y="244.8" style="stroke: #000000; stroke-width: 0.8"/>
      </g>
     </g>
     <g id="text_15">
      <!-- 2.5 -->
      <g transform="translate(121.096875 248.599219) scale(0.1 -0.1)">
       <use xlink:href="#DejaVuSans-32"/>
       <use xlink:href="#DejaVuSans-2e" x="63.623047"/>
       <use xlink:href="#DejaVuSans-35" x="95.410156"/>
      </g>
     </g>
    </g>
    <g id="ytick_7">
     <g id="line2d_71">
      <path d="M 144 165.6 
L 1036.8 165.6 
" clip-path="url(#p0593d181ac)" style="fill: none; stroke: #444444; stroke-linecap: square"/>
     </g>
     <g id="line2d_72">
      <g>
       <use xlink:href="#m7799400983" x="144" y="165.6" style="stroke: #000000; stroke-width: 0.8"/>
      </g>
     </g>
     <g id="text_16">
      <!-- 3.0 -->
      <g transform="translate(121.096875 169.399219) scale(0.1 -0.1)">
       <defs>
        <path id="DejaVuSans-33" d="M 2597 2516 
Q 3050 2419 3304 2112 
Q 3559 1806 3559 1356 
Q 3559 666 3084 287 
Q 2609 -91 1734 -91 
Q 1441 -91 1130 -33 
Q 819 25 488 141 
L 488 750 
Q 750 597 1062 519 
Q 1375 441 1716 441 
Q 2309 441 2620 675 
Q 2931 909 2931 1356 
Q 2931 1769 2642 2001 
Q 2353 2234 1838 2234 
L 1294 2234 
L 1294 2753 
L 1863 2753 
Q 2328 2753 2575 2939 
Q 2822 3125 2822 3475 
Q 2822 3834 2567 4026 
Q 2313 4219 1838 4219 
Q 1578 4219 1281 4162 
Q 984 4106 628 3988 
L 628 4550 
Q 988 4650 1302 4700 
Q 1616 4750 1894 4750 
Q 2613 4750 3031 4423 
Q 3450 4097 3450 3541 
Q 3450 3153 3228 2886 
Q 3006 2619 2597 2516 
z
" transform="scale(0.015625)"/>
       </defs>
       <use xlink:href="#DejaVuSans-33"/>
       <use xlink:href="#DejaVuSans-2e" x="63.623047"/>
       <use xlink:href="#DejaVuSans-30" x="95.410156"/>
      </g>
     </g>
    </g>
    <g id="ytick_8">
     <g id="line2d_73">
      <path d="M 144 86.4 
L 1036.8 86.4 
" clip-path="url(#p0593d181ac)" style="fill: none; stroke: #444444; stroke-linecap: square"/>
     </g>
     <g id="line2d_74">
      <g>
       <use xlink:href="#m7799400983" x="144" y="86.4" style="stroke: #000000; stroke-width: 0.8"/>
      </g>
     </g>
     <g id="text_17">
      <!-- 3.5 -->
      <g transform="translate(121.096875 90.199219) scale(0.1 -0.1)">
       <use xlink:href="#DejaVuSans-33"/>
       <use xlink:href="#DejaVuSans-2e" x="63.623047"/>
       <use xlink:href="#DejaVuSans-35" x="95.410156"/>
      </g>
     </g>
    </g>
    <g id="ytick_9">
     <g id="line2d_75">
      <path d="M 144 624.96 
L 1036.8 624.96 
" clip-path="url(#p0593d181ac)" style="fill: none; stroke-dasharray: 1,1.65; stroke-dashoffset: 0; stroke: #aaaaaa"/>
     </g>
     <g id="line2d_76">
      <defs>
       <path id="mb0e8e7ec70" d="M 0 0 
L -2 0 
" style="stroke: #000000; stroke-width: 0.6"/>
      </defs>
      <g>
       <use xlink:href="#mb0e8e7ec70" x="144" y="624.96" style="stroke: #000000; stroke-width: 0.6"/>
      </g>
     </g>
    </g>
    <g id="ytick_10">
     <g id="line2d_77">
      <path d="M 144 609.12 
L 1036.8 609.12 
" clip-path="url(#p0593d181ac)" style="fill: none; stroke-dasharray: 1,1.65; stroke-dashoffset: 0; stroke: #aaaaaa"/>
     </g>
     <g id="line2d_78">
      <g>
       <use xlink:href="#mb0e8e7ec70" x="144" y="609.12" style="stroke: #000000; stroke-width: 0.6"/>
      </g>
     </g>
    </g>
    <g id="ytick_11">
     <g id="line2d_79">
      <path d="M 144 593.28 
L 1036.8 593.28 
" clip-path="url(#p0593d181ac)" style="fill: none; stroke-dasharray: 1,1.65; stroke-dashoffset: 0; stroke: #aaaaaa"/>
     </g>
     <g id="line2d_80">
      <g>
       <use xlink:href="#mb0e8e7ec70" x="144" y="593.28" style="stroke: #000000; stroke-width: 0.6"/>
      </g>
     </g>
    </g>
    <g id="ytick_12">
     <g id="line2d_81">
      <path d="M 144 577.44 
L 1036.8 577.44 
" clip-path="url(#p0593d181ac)" style="fill: none; stroke-dasharray: 1,1.65; stroke-dashoffset: 0; stroke: #aaaaaa"/>
     </g>
     <g id="line2d_82">
      <g>
       <use xlink:href="#mb0e8e7ec70" x="144" y="577.44" style="stroke: #000000; stroke-width: 0.6"/>
      </g>
     </g>
    </g>
    <g id="ytick_13">
     <g id="line2d_83">
      <path d="M 144 545.76 
L 1036.8 545.76 
" clip-path="url(#p0593d181ac)" style="fill: none; stroke-dasharray: 1,1.65; stroke-dashoffset: 0; stroke: #aaaaaa"/>
     </g>
     <g id="line2d_84">
      <g>
       <use xlink:href="#mb0e8e7ec70" x="144" y="545.76" style="stroke: #000000; stroke-width: 0.6"/>
      </g>
     </g>
    </g>
    <g id="ytick_14">
     <g id="line2d_85">
      <path d="M 144 529.92 
L 1036.8 529.92 
" clip-path="url(#p0593d181ac)" style="fill: none; stroke-dasharray: 1,1.65; stroke-dashoffset: 0; stroke: #aaaaaa"/>
     </g>
     <g id="line2d_86">
      <g>
       <use xlink:href="#mb0e8e7ec70" x="144" y="529.92" style="stroke: #000000; stroke-width: 0.6"/>
      </g>
     </g>
    </g>
    <g id="ytick_15">
     <g id="line2d_87">
      <path d="M 144 514.08 
L 1036.8 514.08 
" clip-path="url(#p0593d181ac)" style="fill: none; stroke-dasharray: 1,1.65; stroke-dashoffset: 0; stroke: #aaaaaa"/>
     </g>
     <g id="line2d_88">
      <g>
       <use xlink:href="#mb0e8e7ec70" x="144" y="514.08" style="stroke: #000000; stroke-width: 0.6"/>
      </g>
     </g>
    </g>
    <g id="ytick_16">
     <g id="line2d_89">
      <path d="M 144 498.24 
L 1036.8 498.24 
" clip-path="url(#p0593d181ac)" style="fill: none; stroke-dasharray: 1,1.65; stroke-dashoffset: 0; stroke: #aaaaaa"/>
     </g>
     <g id="line2d_90">
      <g>
       <use xlink:href="#mb0e8e7ec70" x="144" y="498.24" style="stroke: #000000; stroke-width: 0.6"/>
      </g>
     </g>
    </g>
    <g id="ytick_17">
     <g id="line2d_91">
      <path d="M 144 466.56 
L 1036.8 466.56 
" clip-path="url(#p0593d181ac)" style="fill: none; stroke-dasharray: 1,1.65; stroke-dashoffset: 0; stroke: #aaaaaa"/>
     </g>
     <g id="line2d_92">
      <g>
       <use xlink:href="#mb0e8e7ec70" x="144" y="466.56" style="stroke: #000000; stroke-width: 0.6"/>
      </g>
     </g>
    </g>
    <g id="ytick_18">
     <g id="line2d_93">
      <path d="M 144 450.72 
L 1036.8 450.72 
" clip-path="url(#p0593d181ac)" style="fill: none; stroke-dasharray: 1,1.65; stroke-dashoffset: 0; stroke: #aaaaaa"/>
     </g>
     <g id="line2d_94">
      <g>
       <use xlink:href="#mb0e8e7ec70" x="144" y="450.72" style="stroke: #000000; stroke-width: 0.6"/>
      </g>
     </g>
    </g>
    <g id="ytick_19">
     <g id="line2d_95">
      <path d="M 144 434.88 
L 1036.8 434.88 
" clip-path="url(#p0593d181ac)" style="fill: none; stroke-dasharray: 1,1.65; stroke-dashoffset: 0; stroke: #aaaaaa"/>
     </g>
     <g id="line2d_96">
      <g>
       <use xlink:href="#mb0e8e7ec70" x="144" y="434.88" style="stroke: #000000; stroke-width: 0.6"/>
      </g>
     </g>
    </g>
    <g id="ytick_20">
     <g id="line2d_97">
      <path d="M 144 419.04 
L 1036.8 419.04 
" clip-path="url(#p0593d181ac)" style="fill: none; stroke-dasharray: 1,1.65; stroke-dashoffset: 0; stroke: #aaaaaa"/>
     </g>
     <g id="line2d_98">
      <g>
       <use xlink:href="#mb0e8e7ec70" x="144" y="419.04" style="stroke: #000000; stroke-width: 0.6"/>
      </g>
     </g>
    </g>
    <g id="ytick_21">
     <g id="line2d_99">
      <path d="M 144 387.36 
L 1036.8 387.36 
" clip-path="url(#p0593d181ac)" style="fill: none; stroke-dasharray: 1,1.65; stroke-dashoffset: 0; stroke: #aaaaaa"/>
     </g>
     <g id="line2d_100">
      <g>
       <use xlink:href="#mb0e8e7ec70" x="144" y="387.36" style="stroke: #000000; stroke-width: 0.6"/>
      </g>
     </g>
    </g>
    <g id="ytick_22">
     <g id="line2d_101">
      <path d="M 144 371.52 
L 1036.8 371.52 
" clip-path="url(#p0593d181ac)" style="fill: none; stroke-dasharray: 1,1.65; stroke-dashoffset: 0; stroke: #aaaaaa"/>
     </g>
     <g id="line2d_102">
      <g>
       <use xlink:href="#mb0e8e7ec70" x="144" y="371.52" style="stroke: #000000; stroke-width: 0.6"/>
      </g>
     </g>
    </g>
    <g id="ytick_23">
     <g id="line2d_103">
      <path d="M 144 355.68 
L 1036.8 355.68 
" clip-path="url(#p0593d181ac)" style="fill: none; stroke-dasharray: 1,1.65; stroke-dashoffset: 0; stroke: #aaaaaa"/>
     </g>
     <g id="line2d_104">
      <g>
       <use xlink:href="#mb0e8e7ec70" x="144" y="355.68" style="stroke: #000000; stroke-width: 0.6"/>
      </g>
     </g>
    </g>
    <g id="ytick_24">
     <g id="line2d_105">
      <path d="M 144 339.84 
L 1036.8 339.84 
" clip-path="url(#p0593d181ac)" style="fill: none; stroke-dasharray: 1,1.65; stroke-dashoffset: 0; stroke: #aaaaaa"/>
     </g>
     <g id="line2d_106">
      <g>
       <use xlink:href="#mb0e8e7ec70" x="144" y="339.84" style="stroke: #000000; stroke-width: 0.6"/>
      </g>
     </g>
    </g>
    <g id="ytick_25">
     <g id="line2d_107">
      <path d="M 144 308.16 
L 1036.8 308.16 
" clip-path="url(#p0593d181ac)" style="fill: none; stroke-dasharray: 1,1.65; stroke-dashoffset: 0; stroke: #aaaaaa"/>
     </g>
     <g id="line2d_108">
      <g>
       <use xlink:href="#mb0e8e7ec70" x="144" y="308.16" style="stroke: #000000; stroke-width: 0.6"/>
      </g>
     </g>
    </g>
    <g id="ytick_26">
     <g id="line2d_109">
      <path d="M 144 292.32 
L 1036.8 292.32 
" clip-path="url(#p0593d181ac)" style="fill: none; stroke-dasharray: 1,1.65; stroke-dashoffset: 0; stroke: #aaaaaa"/>
     </g>
     <g id="line2d_110">
      <g>
       <use xlink:href="#mb0e8e7ec70" x="144" y="292.32" style="stroke: #000000; stroke-width: 0.6"/>
      </g>
     </g>
    </g>
    <g id="ytick_27">
     <g id="line2d_111">
      <path d="M 144 276.48 
L 1036.8 276.48 
" clip-path="url(#p0593d181ac)" style="fill: none; stroke-dasharray: 1,1.65; stroke-dashoffset: 0; stroke: #aaaaaa"/>
     </g>
     <g id="line2d_112">
      <g>
       <use xlink:href="#mb0e8e7ec70" x="144" y="276.48" style="stroke: #000000; stroke-width: 0.6"/>
      </g>
     </g>
    </g>
    <g id="ytick_28">
     <g id="line2d_113">
      <path d="M 144 260.64 
L 1036.8 260.64 
" clip-path="url(#p0593d181ac)" style="fill: none; stroke-dasharray: 1,1.65; stroke-dashoffset: 0; stroke: #aaaaaa"/>
     </g>
     <g id="line2d_114">
      <g>
       <use xlink:href="#mb0e8e7ec70" x="144" y="260.64" style="stroke: #000000; stroke-width: 0.6"/>
      </g>
     </g>
    </g>
    <g id="ytick_29">
     <g id="line2d_115">
      <path d="M 144 228.96 
L 1036.8 228.96 
" clip-path="url(#p0593d181ac)" style="fill: none; stroke-dasharray: 1,1.65; stroke-dashoffset: 0; stroke: #aaaaaa"/>
     </g>
     <g id="line2d_116">
      <g>
       <use xlink:href="#mb0e8e7ec70" x="144" y="228.96" style="stroke: #000000; stroke-width: 0.6"/>
      </g>
     </g>
    </g>
    <g id="ytick_30">
     <g id="line2d_117">
      <path d="M 144 213.12 
L 1036.8 213.12 
" clip-path="url(#p0593d181ac)" style="fill: none; stroke-dasharray: 1,1.65; stroke-dashoffset: 0; stroke: #aaaaaa"/>
     </g>
     <g id="line2d_118">
      <g>
       <use xlink:href="#mb0e8e7ec70" x="144" y="213.12" style="stroke: #000000; stroke-width: 0.6"/>
      </g>
     </g>
    </g>
    <g id="ytick_31">
     <g id="line2d_119">
      <path d="M 144 197.28 
L 1036.8 197.28 
" clip-path="url(#p0593d181ac)" style="fill: none; stroke-dasharray: 1,1.65; stroke-dashoffset: 0; stroke: #aaaaaa"/>
     </g>
     <g id="line2d_120">
      <g>
       <use xlink:href="#mb0e8e7ec70" x="144" y="197.28" style="stroke: #000000; stroke-width: 0.6"/>
      </g>
     </g>
    </g>
    <g id="ytick_32">
     <g id="line2d_121">
      <path d="M 144 181.44 
L 1036.8 181.44 
" clip-path="url(#p0593d181ac)" style="fill: none; stroke-dasharray: 1,1.65; stroke-dashoffset: 0; stroke: #aaaaaa"/>
     </g>
     <g id="line2d_122">
      <g>
       <use xlink:href="#mb0e8e7ec70" x="144" y="181.44" style="stroke: #000000; stroke-width: 0.6"/>
      </g>
     </g>
    </g>
    <g id="ytick_33">
     <g id="line2d_123">
      <path d="M 144 149.76 
L 1036.8 149.76 
" clip-path="url(#p0593d181ac)" style="fill: none; stroke-dasharray: 1,1.65; stroke-dashoffset: 0; stroke: #aaaaaa"/>
     </g>
     <g id="line2d_124">
      <g>
       <use xlink:href="#mb0e8e7ec70" x="144" y="149.76" style="stroke: #000000; stroke-width: 0.6"/>
      </g>
     </g>
    </g>
    <g id="ytick_34">
     <g id="line2d_125">
      <path d="M 144 133.92 
L 1036.8 133.92 
" clip-path="url(#p0593d181ac)" style="fill: none; stroke-dasharray: 1,1.65; stroke-dashoffset: 0; stroke: #aaaaaa"/>
     </g>
     <g id="line2d_126">
      <g>
       <use xlink:href="#mb0e8e7ec70" x="144" y="133.92" style="stroke: #000000; stroke-width: 0.6"/>
      </g>
     </g>
    </g>
    <g id="ytick_35">
     <g id="line2d_127">
      <path d="M 144 118.08 
L 1036.8 118.08 
" clip-path="url(#p0593d181ac)" style="fill: none; stroke-dasharray: 1,1.65; stroke-dashoffset: 0; stroke: #aaaaaa"/>
     </g>
     <g id="line2d_128">
      <g>
       <use xlink:href="#mb0e8e7ec70" x="144" y="118.08" style="stroke: #000000; stroke-width: 0.6"/>
      </g>
     </g>
    </g>
    <g id="ytick_36">
     <g id="line2d_129">
      <path d="M 144 102.24 
L 1036.8 102.24 
" clip-path="url(#p0593d181ac)" style="fill: none; stroke-dasharray: 1,1.65; stroke-dashoffset: 0; stroke: #aaaaaa"/>
     </g>
     <g id="line2d_130">
      <g>
       <use xlink:href="#mb0e8e7ec70" x="144" y="102.24" style="stroke: #000000; stroke-width: 0.6"/>
      </g>
     </g>
    </g>
    <g id="text_18">
     <!-- Напряжение, В -->
     <g transform="translate(115.017187 403.659375) rotate(-90) scale(0.1 -0.1)">
      <defs>
       <path id="DejaVuSans-41d" d="M 628 4666 
L 1259 4666 
L 1259 2753 
L 3553 2753 
L 3553 4666 
L 4184 4666 
L 4184 0 
L 3553 0 
L 3553 2222 
L 1259 2222 
L 1259 0 
L 628 0 
L 628 4666 
z
" transform="scale(0.015625)"/>
       <path id="DejaVuSans-430" d="M 2194 1759 
Q 1497 1759 1228 1600 
Q 959 1441 959 1056 
Q 959 750 1161 570 
Q 1363 391 1709 391 
Q 2188 391 2477 730 
Q 2766 1069 2766 1631 
L 2766 1759 
L 2194 1759 
z
M 3341 1997 
L 3341 0 
L 2766 0 
L 2766 531 
Q 2569 213 2275 61 
Q 1981 -91 1556 -91 
Q 1019 -91 701 211 
Q 384 513 384 1019 
Q 384 1609 779 1909 
Q 1175 2209 1959 2209 
L 2766 2209 
L 2766 2266 
Q 2766 2663 2505 2880 
Q 2244 3097 1772 3097 
Q 1472 3097 1187 3025 
Q 903 2953 641 2809 
L 641 3341 
Q 956 3463 1253 3523 
Q 1550 3584 1831 3584 
Q 2591 3584 2966 3190 
Q 3341 2797 3341 1997 
z
" transform="scale(0.015625)"/>
       <path id="DejaVuSans-43f" d="M 3603 3500 
L 3603 0 
L 3025 0 
L 3025 3041 
L 1159 3041 
L 1159 0 
L 581 0 
L 581 3500 
L 3603 3500 
z
" transform="scale(0.015625)"/>
       <path id="DejaVuSans-436" d="M 2597 3500 
L 3169 3500 
L 3169 1856 
L 4697 3500 
L 5366 3500 
L 4109 2153 
L 5547 0 
L 4931 0 
L 3753 1769 
L 3169 1141 
L 3169 0 
L 2597 0 
L 2597 1141 
L 2013 1769 
L 834 0 
L 219 0 
L 1656 2153 
L 400 3500 
L 1069 3500 
L 2597 1856 
L 2597 3500 
z
" transform="scale(0.015625)"/>
       <path id="DejaVuSans-43d" d="M 581 3500 
L 1159 3500 
L 1159 2072 
L 3025 2072 
L 3025 3500 
L 3603 3500 
L 3603 0 
L 3025 0 
L 3025 1613 
L 1159 1613 
L 1159 0 
L 581 0 
L 581 3500 
z
" transform="scale(0.015625)"/>
       <path id="DejaVuSans-438" d="M 3578 3500 
L 3578 0 
L 3006 0 
L 3006 2809 
L 1319 0 
L 581 0 
L 581 3500 
L 1153 3500 
L 1153 697 
L 2838 3500 
L 3578 3500 
z
" transform="scale(0.015625)"/>
      </defs>
      <use xlink:href="#DejaVuSans-41d"/>
      <use xlink:href="#DejaVuSans-430" x="75.195312"/>
      <use xlink:href="#DejaVuSans-43f" x="136.474609"/>
      <use xlink:href="#DejaVuSans-440" x="201.855469"/>
      <use xlink:href="#DejaVuSans-44f" x="265.332031"/>
      <use xlink:href="#DejaVuSans-436" x="325.488281"/>
      <use xlink:href="#DejaVuSans-435" x="415.576172"/>
      <use xlink:href="#DejaVuSans-43d" x="477.099609"/>
      <use xlink:href="#DejaVuSans-438" x="542.480469"/>
      <use xlink:href="#DejaVuSans-435" x="607.470703"/>
      <use xlink:href="#DejaVuSans-2c" x="668.994141"/>
      <use xlink:href="#DejaVuSans-20" x="700.78125"/>
      <use xlink:href="#DejaVuSans-412" x="732.568359"/>
     </g>
    </g>
   </g>
   <g id="line2d_131">
    <path d="M 144.854537 638.758125 
L 145.709074 630.590625 
L 148.272686 618.339375 
L 149.127223 610.171875 
L 150.836297 602.004375 
L 151.690834 593.836875 
L 152.545371 593.836875 
L 153.399909 585.669375 
L 154.254446 585.669375 
L 155.108983 577.501875 
L 155.96352 577.501875 
L 156.818057 565.250625 
L 167.92704 512.161875 
L 168.781577 512.161875 
L 169.636114 503.994375 
L 173.054263 487.659375 
L 173.9088 487.659375 
L 174.763337 479.491875 
L 175.617874 479.491875 
L 182.454171 446.821875 
L 183.308709 446.821875 
L 186.726857 430.486875 
L 187.581394 430.486875 
L 190.999543 414.151875 
L 191.85408 414.151875 
L 193.563154 405.984375 
L 194.417691 405.984375 
L 196.126766 397.816875 
L 196.981303 397.816875 
L 198.690377 389.649375 
L 199.544914 389.649375 
L 201.253989 381.481875 
L 202.963063 381.481875 
L 203.8176 373.314375 
L 204.672137 373.314375 
L 205.526674 369.230625 
L 206.381211 369.230625 
L 208.090286 361.063125 
L 208.944823 361.063125 
L 209.79936 356.979375 
L 210.653897 356.979375 
L 212.362971 348.811875 
L 214.072046 348.811875 
L 215.78112 340.644375 
L 217.490194 340.644375 
L 219.199269 332.476875 
L 220.053806 332.476875 
L 220.908343 328.393125 
L 221.76288 328.393125 
L 222.617417 324.309375 
L 223.471954 324.309375 
L 224.326491 320.225625 
L 225.181029 320.225625 
L 226.035566 316.141875 
L 228.599177 316.141875 
L 229.453714 307.974375 
L 231.162789 307.974375 
L 232.017326 303.890625 
L 232.871863 303.890625 
L 233.7264 299.806875 
L 235.435474 299.806875 
L 236.290011 295.723125 
L 237.144549 295.723125 
L 237.999086 291.639375 
L 238.853623 291.639375 
L 239.70816 287.555625 
L 242.271771 287.555625 
L 243.980846 279.388125 
L 245.68992 279.388125 
L 246.544457 275.304375 
L 248.253531 275.304375 
L 249.108069 271.220625 
L 249.962606 271.220625 
L 250.817143 267.136875 
L 253.380754 267.136875 
L 254.235291 263.053125 
L 255.089829 263.053125 
L 255.944366 258.969375 
L 257.65344 258.969375 
L 258.507977 254.885625 
L 261.071589 254.885625 
L 262.780663 246.718125 
L 267.907886 246.718125 
L 269.61696 238.550625 
L 273.035109 238.550625 
L 273.889646 234.466875 
L 276.453257 234.466875 
L 277.307794 230.383125 
L 279.016869 230.383125 
L 279.871406 226.299375 
L 281.58048 226.299375 
L 282.435017 222.215625 
L 285.853166 222.215625 
L 286.707703 218.131875 
L 290.125851 218.131875 
L 290.980389 214.048125 
L 294.398537 214.048125 
L 295.253074 209.964375 
L 298.671223 209.964375 
L 299.52576 205.880625 
L 301.234834 205.880625 
L 302.089371 201.796875 
L 302.943909 205.880625 
L 303.798446 201.796875 
L 306.362057 201.796875 
L 307.216594 197.713125 
L 313.198354 197.713125 
L 314.052891 193.629375 
L 318.325577 193.629375 
L 319.180114 189.545625 
L 323.4528 189.545625 
L 324.307337 185.461875 
L 327.725486 185.461875 
L 328.580023 181.378125 
L 337.979931 181.378125 
L 338.834469 177.294375 
L 345.670766 177.294375 
L 346.525303 173.210625 
L 347.37984 177.294375 
L 348.234377 173.210625 
L 352.507063 173.210625 
L 353.3616 169.126875 
L 354.216137 173.210625 
L 355.070674 169.126875 
L 362.761509 169.126875 
L 363.616046 165.043125 
L 371.30688 165.043125 
L 372.161417 160.959375 
L 379.852251 160.959375 
L 380.706789 156.875625 
L 381.561326 160.959375 
L 382.415863 160.959375 
L 383.2704 156.875625 
L 390.961234 156.875625 
L 391.815771 152.791875 
L 392.670309 156.875625 
L 393.524846 156.875625 
L 394.379383 152.791875 
L 395.23392 156.875625 
L 396.088457 156.875625 
L 396.942994 152.791875 
L 403.779291 152.791875 
L 404.633829 148.708125 
L 405.488366 152.791875 
L 406.342903 152.791875 
L 407.19744 148.708125 
L 408.051977 148.708125 
L 408.906514 152.791875 
L 411.470126 152.791875 
L 412.324663 148.708125 
L 428.560869 148.708125 
L 429.415406 144.624375 
L 430.269943 148.708125 
L 431.12448 144.624375 
L 449.924297 144.624375 
L 450.778834 140.540625 
L 451.633371 140.540625 
L 452.487909 144.624375 
L 453.342446 144.624375 
L 454.196983 140.540625 
L 455.05152 140.540625 
L 455.906057 144.624375 
L 456.760594 140.540625 
L 471.287726 140.540625 
L 472.142263 136.456875 
L 472.9968 144.624375 
L 473.851337 148.708125 
L 474.705874 148.708125 
L 475.560411 156.875625 
L 477.269486 165.043125 
L 478.124023 173.210625 
L 478.97856 173.210625 
L 479.833097 181.378125 
L 480.687634 181.378125 
L 481.542171 189.545625 
L 483.251246 197.713125 
L 484.105783 197.713125 
L 484.96032 205.880625 
L 485.814857 205.880625 
L 494.360229 246.718125 
L 495.214766 246.718125 
L 499.487451 267.136875 
L 500.341989 267.136875 
L 501.196526 275.304375 
L 502.051063 275.304375 
L 502.9056 279.388125 
L 503.760137 279.388125 
L 508.032823 299.806875 
L 508.88736 299.806875 
L 512.305509 316.141875 
L 513.160046 316.141875 
L 514.86912 324.309375 
L 515.723657 324.309375 
L 516.578194 328.393125 
L 517.432731 328.393125 
L 519.996343 340.644375 
L 520.85088 340.644375 
L 521.705417 344.728125 
L 522.559954 344.728125 
L 524.269029 352.895625 
L 525.123566 352.895625 
L 526.83264 361.063125 
L 527.687177 361.063125 
L 528.541714 365.146875 
L 529.396251 365.146875 
L 530.250789 369.230625 
L 531.105326 369.230625 
L 531.959863 373.314375 
L 532.8144 373.314375 
L 533.668937 377.398125 
L 534.523474 377.398125 
L 535.378011 381.481875 
L 536.232549 381.481875 
L 537.087086 385.565625 
L 537.941623 385.565625 
L 539.650697 393.733125 
L 541.359771 393.733125 
L 542.214309 397.816875 
L 543.068846 397.816875 
L 543.923383 401.900625 
L 544.77792 401.900625 
L 546.486994 410.068125 
L 548.196069 410.068125 
L 549.050606 414.151875 
L 549.905143 414.151875 
L 550.75968 418.235625 
L 551.614217 418.235625 
L 552.468754 422.319375 
L 553.323291 422.319375 
L 554.177829 426.403125 
L 555.886903 426.403125 
L 556.74144 430.486875 
L 557.595977 430.486875 
L 558.450514 434.570625 
L 559.305051 434.570625 
L 560.159589 438.654375 
L 561.014126 438.654375 
L 561.868663 442.738125 
L 564.432274 442.738125 
L 566.141349 450.905625 
L 567.850423 450.905625 
L 568.70496 454.989375 
L 569.559497 454.989375 
L 570.414034 459.073125 
L 572.977646 459.073125 
L 573.832183 463.156875 
L 574.68672 463.156875 
L 575.541257 467.240625 
L 577.250331 467.240625 
L 578.104869 471.324375 
L 578.959406 471.324375 
L 579.813943 475.408125 
L 581.523017 475.408125 
L 582.377554 479.491875 
L 584.941166 479.491875 
L 585.795703 483.575625 
L 587.504777 483.575625 
L 588.359314 487.659375 
L 590.068389 487.659375 
L 590.922926 491.743125 
L 593.486537 491.743125 
L 594.341074 495.826875 
L 595.195611 495.826875 
L 596.050149 499.910625 
L 598.61376 499.910625 
L 599.468297 503.994375 
L 601.177371 503.994375 
L 602.031909 508.078125 
L 602.886446 508.078125 
L 603.740983 512.161875 
L 608.868206 512.161875 
L 609.722743 516.245625 
L 611.431817 516.245625 
L 612.286354 520.329375 
L 613.995429 520.329375 
L 614.849966 524.413125 
L 618.268114 524.413125 
L 619.122651 528.496875 
L 621.686263 528.496875 
L 622.5408 532.580625 
L 624.249874 532.580625 
L 625.104411 536.664375 
L 628.52256 536.664375 
L 629.377097 540.748125 
L 632.795246 540.748125 
L 633.649783 544.831875 
L 634.50432 540.748125 
L 635.358857 544.831875 
L 637.067931 544.831875 
L 637.922469 548.915625 
L 641.340617 548.915625 
L 642.195154 552.999375 
L 645.613303 552.999375 
L 646.46784 557.083125 
L 649.885989 557.083125 
L 650.740526 561.166875 
L 655.867749 561.166875 
L 656.722286 565.250625 
L 660.140434 565.250625 
L 660.994971 569.334375 
L 664.41312 569.334375 
L 665.267657 573.418125 
L 666.122194 569.334375 
L 666.976731 573.418125 
L 669.540343 573.418125 
L 670.39488 577.501875 
L 678.940251 577.501875 
L 679.794789 581.585625 
L 685.776549 581.585625 
L 686.631086 585.669375 
L 690.903771 585.669375 
L 691.758309 589.753125 
L 699.449143 589.753125 
L 700.30368 593.836875 
L 708.849051 593.836875 
L 709.703589 597.920625 
L 716.539886 597.920625 
L 717.394423 602.004375 
L 718.24896 597.920625 
L 719.103497 602.004375 
L 728.503406 602.004375 
L 729.357943 606.088125 
L 737.048777 606.088125 
L 737.903314 610.171875 
L 751.575909 610.171875 
L 752.430446 614.255625 
L 766.10304 614.255625 
L 766.957577 618.339375 
L 767.812114 614.255625 
L 768.666651 618.339375 
L 782.339246 618.339375 
L 783.193783 622.423125 
L 801.139063 622.423125 
L 801.9936 626.506875 
L 802.848137 622.423125 
L 805.411749 622.423125 
L 806.266286 626.506875 
L 807.120823 626.506875 
L 807.97536 622.423125 
L 808.829897 626.506875 
L 825.92064 626.506875 
L 826.775177 630.590625 
L 827.629714 626.506875 
L 834.466011 626.506875 
L 835.320549 630.590625 
L 837.029623 630.590625 
L 837.88416 626.506875 
L 838.738697 630.590625 
L 861.8112 630.590625 
L 862.665737 634.674375 
L 863.520274 630.590625 
L 865.229349 630.590625 
L 866.083886 634.674375 
L 910.519817 634.674375 
L 911.374354 638.758125 
L 911.374354 638.758125 
" clip-path="url(#p0593d181ac)" style="fill: none; stroke: #ac3b61; stroke-width: 2; stroke-linecap: square"/>
    <defs>
     <path id="m388c18b4ea" d="M 0 3 
C 0.795609 3 1.55874 2.683901 2.12132 2.12132 
C 2.683901 1.55874 3 0.795609 3 0 
C 3 -0.795609 2.683901 -1.55874 2.12132 -2.12132 
C 1.55874 -2.683901 0.795609 -3 0 -3 
C -0.795609 -3 -1.55874 -2.683901 -2.12132 -2.12132 
C -2.683901 -1.55874 -3 -0.795609 -3 0 
C -3 0.795609 -2.683901 1.55874 -2.12132 2.12132 
C -1.55874 2.683901 -0.795609 3 0 3 
z
" style="stroke: #123c69"/>
    </defs>
    <g clip-path="url(#p0593d181ac)">
     <use xlink:href="#m388c18b4ea" x="144.854537" y="638.758125" style="fill: #123c69; stroke: #123c69"/>
     <use xlink:href="#m388c18b4ea" x="166.217966" y="520.329375" style="fill: #123c69; stroke: #123c69"/>
     <use xlink:href="#m388c18b4ea" x="187.581394" y="430.486875" style="fill: #123c69; stroke: #123c69"/>
     <use xlink:href="#m388c18b4ea" x="208.944823" y="361.063125" style="fill: #123c69; stroke: #123c69"/>
     <use xlink:href="#m388c18b4ea" x="230.308251" y="307.974375" style="fill: #123c69; stroke: #123c69"/>
     <use xlink:href="#m388c18b4ea" x="251.67168" y="267.136875" style="fill: #123c69; stroke: #123c69"/>
     <use xlink:href="#m388c18b4ea" x="273.035109" y="238.550625" style="fill: #123c69; stroke: #123c69"/>
     <use xlink:href="#m388c18b4ea" x="294.398537" y="214.048125" style="fill: #123c69; stroke: #123c69"/>
     <use xlink:href="#m388c18b4ea" x="315.761966" y="193.629375" style="fill: #123c69; stroke: #123c69"/>
     <use xlink:href="#m388c18b4ea" x="337.125394" y="181.378125" style="fill: #123c69; stroke: #123c69"/>
     <use xlink:href="#m388c18b4ea" x="358.488823" y="169.126875" style="fill: #123c69; stroke: #123c69"/>
     <use xlink:href="#m388c18b4ea" x="379.852251" y="160.959375" style="fill: #123c69; stroke: #123c69"/>
     <use xlink:href="#m388c18b4ea" x="401.21568" y="152.791875" style="fill: #123c69; stroke: #123c69"/>
     <use xlink:href="#m388c18b4ea" x="422.579109" y="148.708125" style="fill: #123c69; stroke: #123c69"/>
     <use xlink:href="#m388c18b4ea" x="443.942537" y="144.624375" style="fill: #123c69; stroke: #123c69"/>
     <use xlink:href="#m388c18b4ea" x="465.305966" y="140.540625" style="fill: #123c69; stroke: #123c69"/>
     <use xlink:href="#m388c18b4ea" x="486.669394" y="209.964375" style="fill: #123c69; stroke: #123c69"/>
     <use xlink:href="#m388c18b4ea" x="508.032823" y="299.806875" style="fill: #123c69; stroke: #123c69"/>
     <use xlink:href="#m388c18b4ea" x="529.396251" y="365.146875" style="fill: #123c69; stroke: #123c69"/>
     <use xlink:href="#m388c18b4ea" x="550.75968" y="418.235625" style="fill: #123c69; stroke: #123c69"/>
     <use xlink:href="#m388c18b4ea" x="572.123109" y="459.073125" style="fill: #123c69; stroke: #123c69"/>
     <use xlink:href="#m388c18b4ea" x="593.486537" y="491.743125" style="fill: #123c69; stroke: #123c69"/>
     <use xlink:href="#m388c18b4ea" x="614.849966" y="524.413125" style="fill: #123c69; stroke: #123c69"/>
     <use xlink:href="#m388c18b4ea" x="636.213394" y="544.831875" style="fill: #123c69; stroke: #123c69"/>
     <use xlink:href="#m388c18b4ea" x="657.576823" y="565.250625" style="fill: #123c69; stroke: #123c69"/>
     <use xlink:href="#m388c18b4ea" x="678.940251" y="577.501875" style="fill: #123c69; stroke: #123c69"/>
     <use xlink:href="#m388c18b4ea" x="700.30368" y="593.836875" style="fill: #123c69; stroke: #123c69"/>
     <use xlink:href="#m388c18b4ea" x="721.667109" y="602.004375" style="fill: #123c69; stroke: #123c69"/>
     <use xlink:href="#m388c18b4ea" x="743.030537" y="610.171875" style="fill: #123c69; stroke: #123c69"/>
     <use xlink:href="#m388c18b4ea" x="764.393966" y="614.255625" style="fill: #123c69; stroke: #123c69"/>
     <use xlink:href="#m388c18b4ea" x="785.757394" y="622.423125" style="fill: #123c69; stroke: #123c69"/>
     <use xlink:href="#m388c18b4ea" x="807.120823" y="626.506875" style="fill: #123c69; stroke: #123c69"/>
     <use xlink:href="#m388c18b4ea" x="828.484251" y="626.506875" style="fill: #123c69; stroke: #123c69"/>
     <use xlink:href="#m388c18b4ea" x="849.84768" y="630.590625" style="fill: #123c69; stroke: #123c69"/>
     <use xlink:href="#m388c18b4ea" x="871.211109" y="634.674375" style="fill: #123c69; stroke: #123c69"/>
     <use xlink:href="#m388c18b4ea" x="892.574537" y="634.674375" style="fill: #123c69; stroke: #123c69"/>
    </g>
   </g>
   <g id="patch_3">
    <path d="M 144 640.8 
L 144 86.4 
" style="fill: none; stroke: #000000; stroke-width: 0.8; stroke-linejoin: miter; stroke-linecap: square"/>
   </g>
   <g id="patch_4">
    <path d="M 1036.8 640.8 
L 1036.8 86.4 
" style="fill: none; stroke: #000000; stroke-width: 0.8; stroke-linejoin: miter; stroke-linecap: square"/>
   </g>
   <g id="patch_5">
    <path d="M 144 640.8 
L 1036.8 640.8 
" style="fill: none; stroke: #000000; stroke-width: 0.8; stroke-linejoin: miter; stroke-linecap: square"/>
   </g>
   <g id="patch_6">
    <path d="M 144 86.4 
L 1036.8 86.4 
" style="fill: none; stroke: #000000; stroke-width: 0.8; stroke-linejoin: miter; stroke-linecap: square"/>
   </g>
   <g id="text_19">
    <!-- Общее время 12.03c -->
    <g transform="translate(405.462857 601.2) scale(0.1 -0.1)">
     <defs>
      <path id="DejaVuSans-41e" d="M 2522 4238 
Q 1834 4238 1429 3725 
Q 1025 3213 1025 2328 
Q 1025 1447 1429 934 
Q 1834 422 2522 422 
Q 3209 422 3611 934 
Q 4013 1447 4013 2328 
Q 4013 3213 3611 3725 
Q 3209 4238 2522 4238 
z
M 2522 4750 
Q 3503 4750 4090 4092 
Q 4678 3434 4678 2328 
Q 4678 1225 4090 567 
Q 3503 -91 2522 -91 
Q 1538 -91 948 565 
Q 359 1222 359 2328 
Q 359 3434 948 4092 
Q 1538 4750 2522 4750 
z
" transform="scale(0.015625)"/>
      <path id="DejaVuSans-431" d="M 1991 3584 
Q 2741 3584 3169 3096 
Q 3597 2609 3597 1747 
Q 3597 888 3169 398 
Q 2741 -91 1991 -91 
Q 1238 -91 822 384 
Q 406 859 384 1747 
L 366 2463 
Q 350 2834 350 2963 
Q 350 3463 531 3831 
Q 816 4409 1308 4659 
Q 1800 4909 2625 4916 
Q 3006 4919 3175 4972 
L 3334 4516 
Q 3181 4453 3041 4450 
L 2259 4397 
Q 1866 4369 1628 4231 
Q 1006 3866 947 3388 
L 925 3213 
Q 1331 3584 1991 3584 
z
M 1991 3097 
Q 1528 3097 1259 2736 
Q 991 2375 991 1747 
Q 991 1119 1258 758 
Q 1525 397 1991 397 
Q 2450 397 2719 759 
Q 2988 1122 2988 1747 
Q 2988 2369 2719 2733 
Q 2450 3097 1991 3097 
z
" transform="scale(0.015625)"/>
      <path id="DejaVuSans-449" d="M 5275 0 
L 581 0 
L 581 3500 
L 1159 3500 
L 1159 459 
L 2638 459 
L 2638 3500 
L 3216 3500 
L 3216 459 
L 4697 459 
L 4697 3500 
L 5275 3500 
L 5275 459 
L 5734 459 
L 5734 -884 
L 5275 -884 
L 5275 0 
z
" transform="scale(0.015625)"/>
      <path id="DejaVuSans-432" d="M 1156 1613 
L 1156 459 
L 1975 459 
Q 2369 459 2575 607 
Q 2781 756 2781 1038 
Q 2781 1319 2575 1466 
Q 2369 1613 1975 1613 
L 1156 1613 
z
M 1156 3041 
L 1156 2072 
L 1913 2072 
Q 2238 2072 2444 2201 
Q 2650 2331 2650 2563 
Q 2650 2794 2444 2917 
Q 2238 3041 1913 3041 
L 1156 3041 
z
M 581 3500 
L 1950 3500 
Q 2566 3500 2897 3275 
Q 3228 3050 3228 2634 
Q 3228 2313 3059 2123 
Q 2891 1934 2559 1888 
Q 2956 1813 3175 1575 
Q 3394 1338 3394 981 
Q 3394 513 3033 256 
Q 2672 0 2003 0 
L 581 0 
L 581 3500 
z
" transform="scale(0.015625)"/>
      <path id="DejaVuSans-63" d="M 3122 3366 
L 3122 2828 
Q 2878 2963 2633 3030 
Q 2388 3097 2138 3097 
Q 1578 3097 1268 2742 
Q 959 2388 959 1747 
Q 959 1106 1268 751 
Q 1578 397 2138 397 
Q 2388 397 2633 464 
Q 2878 531 3122 666 
L 3122 134 
Q 2881 22 2623 -34 
Q 2366 -91 2075 -91 
Q 1284 -91 818 406 
Q 353 903 353 1747 
Q 353 2603 823 3093 
Q 1294 3584 2113 3584 
Q 2378 3584 2631 3529 
Q 2884 3475 3122 3366 
z
" transform="scale(0.015625)"/>
     </defs>
     <use xlink:href="#DejaVuSans-41e"/>
     <use xlink:href="#DejaVuSans-431" x="78.710938"/>
     <use xlink:href="#DejaVuSans-449" x="140.380859"/>
     <use xlink:href="#DejaVuSans-435" x="234.570312"/>
     <use xlink:href="#DejaVuSans-435" x="296.09375"/>
     <use xlink:href="#DejaVuSans-20" x="357.617188"/>
     <use xlink:href="#DejaVuSans-432" x="389.404297"/>
     <use xlink:href="#DejaVuSans-440" x="448.339844"/>
     <use xlink:href="#DejaVuSans-435" x="511.816406"/>
     <use xlink:href="#DejaVuSans-43c" x="573.339844"/>
     <use xlink:href="#DejaVuSans-44f" x="648.779297"/>
     <use xlink:href="#DejaVuSans-20" x="708.935547"/>
     <use xlink:href="#DejaVuSans-31" x="740.722656"/>
     <use xlink:href="#DejaVuSans-32" x="804.345703"/>
     <use xlink:href="#DejaVuSans-2e" x="867.96875"/>
     <use xlink:href="#DejaVuSans-30" x="899.755859"/>
     <use xlink:href="#DejaVuSans-33" x="963.378906"/>
     <use xlink:href="#DejaVuSans-63" x="1027.001953"/>
    </g>
   </g>
   <g id="text_20">
    <!-- Время заряда 5.13c -->
    <g transform="translate(405.462857 617.04) scale(0.1 -0.1)">
     <defs>
      <path id="DejaVuSans-437" d="M 2206 1888 
Q 2594 1813 2809 1584 
Q 3025 1356 3025 1019 
Q 3025 478 2622 193 
Q 2219 -91 1475 -91 
Q 1225 -91 961 -47 
Q 697 -3 416 84 
L 416 619 
Q 638 503 903 445 
Q 1169 388 1459 388 
Q 1931 388 2195 563 
Q 2459 738 2459 1019 
Q 2459 1294 2225 1461 
Q 1991 1628 1563 1628 
L 1100 1628 
L 1100 2103 
L 1584 2103 
Q 1947 2103 2158 2242 
Q 2369 2381 2369 2600 
Q 2369 2800 2151 2944 
Q 1934 3088 1563 3088 
Q 1341 3088 1089 3047 
Q 838 3006 534 2916 
L 534 3438 
Q 841 3513 1106 3550 
Q 1372 3588 1609 3588 
Q 2222 3588 2576 3342 
Q 2931 3097 2931 2656 
Q 2931 2366 2743 2164 
Q 2556 1963 2206 1888 
z
" transform="scale(0.015625)"/>
      <path id="DejaVuSans-434" d="M 1384 459 
L 3053 459 
L 3053 3041 
L 1844 3041 
L 1844 2603 
Q 1844 1316 1475 628 
L 1384 459 
z
M 550 459 
Q 834 584 959 850 
Q 1266 1509 1266 2838 
L 1266 3500 
L 3631 3500 
L 3631 459 
L 4091 459 
L 4091 -884 
L 3631 -884 
L 3631 0 
L 794 0 
L 794 -884 
L 334 -884 
L 334 459 
L 550 459 
z
" transform="scale(0.015625)"/>
     </defs>
     <use xlink:href="#DejaVuSans-412"/>
     <use xlink:href="#DejaVuSans-440" x="68.603516"/>
     <use xlink:href="#DejaVuSans-435" x="132.080078"/>
     <use xlink:href="#DejaVuSans-43c" x="193.603516"/>
     <use xlink:href="#DejaVuSans-44f" x="269.042969"/>
     <use xlink:href="#DejaVuSans-20" x="329.199219"/>
     <use xlink:href="#DejaVuSans-437" x="360.986328"/>
     <use xlink:href="#DejaVuSans-430" x="414.160156"/>
     <use xlink:href="#DejaVuSans-440" x="475.439453"/>
     <use xlink:href="#DejaVuSans-44f" x="538.916016"/>
     <use xlink:href="#DejaVuSans-434" x="599.072266"/>
     <use xlink:href="#DejaVuSans-430" x="668.212891"/>
     <use xlink:href="#DejaVuSans-20" x="729.492188"/>
     <use xlink:href="#DejaVuSans-35" x="761.279297"/>
     <use xlink:href="#DejaVuSans-2e" x="824.902344"/>
     <use xlink:href="#DejaVuSans-31" x="856.689453"/>
     <use xlink:href="#DejaVuSans-33" x="920.3125"/>
     <use xlink:href="#DejaVuSans-63" x="983.935547"/>
    </g>
   </g>
   <g id="text_21">
    <!-- Время разряда 6.9c -->
    <g transform="translate(405.462857 632.88) scale(0.1 -0.1)">
     <defs>
      <path id="DejaVuSans-39" d="M 703 97 
L 703 672 
Q 941 559 1184 500 
Q 1428 441 1663 441 
Q 2288 441 2617 861 
Q 2947 1281 2994 2138 
Q 2813 1869 2534 1725 
Q 2256 1581 1919 1581 
Q 1219 1581 811 2004 
Q 403 2428 403 3163 
Q 403 3881 828 4315 
Q 1253 4750 1959 4750 
Q 2769 4750 3195 4129 
Q 3622 3509 3622 2328 
Q 3622 1225 3098 567 
Q 2575 -91 1691 -91 
Q 1453 -91 1209 -44 
Q 966 3 703 97 
z
M 1959 2075 
Q 2384 2075 2632 2365 
Q 2881 2656 2881 3163 
Q 2881 3666 2632 3958 
Q 2384 4250 1959 4250 
Q 1534 4250 1286 3958 
Q 1038 3666 1038 3163 
Q 1038 2656 1286 2365 
Q 1534 2075 1959 2075 
z
" transform="scale(0.015625)"/>
     </defs>
     <use xlink:href="#DejaVuSans-412"/>
     <use xlink:href="#DejaVuSans-440" x="68.603516"/>
     <use xlink:href="#DejaVuSans-435" x="132.080078"/>
     <use xlink:href="#DejaVuSans-43c" x="193.603516"/>
     <use xlink:href="#DejaVuSans-44f" x="269.042969"/>
     <use xlink:href="#DejaVuSans-20" x="329.199219"/>
     <use xlink:href="#DejaVuSans-440" x="360.986328"/>
     <use xlink:href="#DejaVuSans-430" x="424.462891"/>
     <use xlink:href="#DejaVuSans-437" x="485.742188"/>
     <use xlink:href="#DejaVuSans-440" x="538.916016"/>
     <use xlink:href="#DejaVuSans-44f" x="602.392578"/>
     <use xlink:href="#DejaVuSans-434" x="662.548828"/>
     <use xlink:href="#DejaVuSans-430" x="731.689453"/>
     <use xlink:href="#DejaVuSans-20" x="792.96875"/>
     <use xlink:href="#DejaVuSans-36" x="824.755859"/>
     <use xlink:href="#DejaVuSans-2e" x="888.378906"/>
     <use xlink:href="#DejaVuSans-39" x="920.166016"/>
     <use xlink:href="#DejaVuSans-63" x="983.789062"/>
    </g>
   </g>
   <g id="text_22">
    <!-- Процесс заряда и разряда конденсатора в RC-цепочке -->
    <g transform="translate(416.063437 80.4) scale(0.12 -0.12)">
     <defs>
      <path id="DejaVuSans-41f" d="M 4184 4666 
L 4184 0 
L 3553 0 
L 3553 4134 
L 1259 4134 
L 1259 0 
L 628 0 
L 628 4666 
L 4184 4666 
z
" transform="scale(0.015625)"/>
      <path id="DejaVuSans-43e" d="M 1959 3097 
Q 1497 3097 1228 2736 
Q 959 2375 959 1747 
Q 959 1119 1226 758 
Q 1494 397 1959 397 
Q 2419 397 2687 759 
Q 2956 1122 2956 1747 
Q 2956 2369 2687 2733 
Q 2419 3097 1959 3097 
z
M 1959 3584 
Q 2709 3584 3137 3096 
Q 3566 2609 3566 1747 
Q 3566 888 3137 398 
Q 2709 -91 1959 -91 
Q 1206 -91 779 398 
Q 353 888 353 1747 
Q 353 2609 779 3096 
Q 1206 3584 1959 3584 
z
" transform="scale(0.015625)"/>
      <path id="DejaVuSans-446" d="M 3603 0 
L 581 0 
L 581 3500 
L 1159 3500 
L 1159 459 
L 3025 459 
L 3025 3500 
L 3603 3500 
L 3603 459 
L 4063 459 
L 4063 -884 
L 3603 -884 
L 3603 0 
z
" transform="scale(0.015625)"/>
      <path id="DejaVuSans-43a" d="M 581 3500 
L 1153 3500 
L 1153 1856 
L 2775 3500 
L 3481 3500 
L 2144 2147 
L 3653 0 
L 3009 0 
L 1769 1766 
L 1153 1141 
L 1153 0 
L 581 0 
L 581 3500 
z
" transform="scale(0.015625)"/>
      <path id="DejaVuSans-442" d="M 188 3500 
L 3541 3500 
L 3541 3041 
L 2147 3041 
L 2147 0 
L 1581 0 
L 1581 3041 
L 188 3041 
L 188 3500 
z
" transform="scale(0.015625)"/>
      <path id="DejaVuSans-52" d="M 2841 2188 
Q 3044 2119 3236 1894 
Q 3428 1669 3622 1275 
L 4263 0 
L 3584 0 
L 2988 1197 
Q 2756 1666 2539 1819 
Q 2322 1972 1947 1972 
L 1259 1972 
L 1259 0 
L 628 0 
L 628 4666 
L 2053 4666 
Q 2853 4666 3247 4331 
Q 3641 3997 3641 3322 
Q 3641 2881 3436 2590 
Q 3231 2300 2841 2188 
z
M 1259 4147 
L 1259 2491 
L 2053 2491 
Q 2509 2491 2742 2702 
Q 2975 2913 2975 3322 
Q 2975 3731 2742 3939 
Q 2509 4147 2053 4147 
L 1259 4147 
z
" transform="scale(0.015625)"/>
      <path id="DejaVuSans-43" d="M 4122 4306 
L 4122 3641 
Q 3803 3938 3442 4084 
Q 3081 4231 2675 4231 
Q 1875 4231 1450 3742 
Q 1025 3253 1025 2328 
Q 1025 1406 1450 917 
Q 1875 428 2675 428 
Q 3081 428 3442 575 
Q 3803 722 4122 1019 
L 4122 359 
Q 3791 134 3420 21 
Q 3050 -91 2638 -91 
Q 1578 -91 968 557 
Q 359 1206 359 2328 
Q 359 3453 968 4101 
Q 1578 4750 2638 4750 
Q 3056 4750 3426 4639 
Q 3797 4528 4122 4306 
z
" transform="scale(0.015625)"/>
      <path id="DejaVuSans-2d" d="M 313 2009 
L 1997 2009 
L 1997 1497 
L 313 1497 
L 313 2009 
z
" transform="scale(0.015625)"/>
      <path id="DejaVuSans-447" d="M 2625 0 
L 2625 1472 
L 1553 1472 
Q 1075 1472 756 1769 
Q 469 2038 469 2613 
L 469 3500 
L 1044 3500 
L 1044 2666 
Q 1044 2300 1206 2116 
Q 1372 1931 1697 1931 
L 2625 1931 
L 2625 3500 
L 3200 3500 
L 3200 0 
L 2625 0 
z
" transform="scale(0.015625)"/>
     </defs>
     <use xlink:href="#DejaVuSans-41f"/>
     <use xlink:href="#DejaVuSans-440" x="75.195312"/>
     <use xlink:href="#DejaVuSans-43e" x="138.671875"/>
     <use xlink:href="#DejaVuSans-446" x="199.853516"/>
     <use xlink:href="#DejaVuSans-435" x="267.919922"/>
     <use xlink:href="#DejaVuSans-441" x="329.443359"/>
     <use xlink:href="#DejaVuSans-441" x="384.423828"/>
     <use xlink:href="#DejaVuSans-20" x="439.404297"/>
     <use xlink:href="#DejaVuSans-437" x="471.191406"/>
     <use xlink:href="#DejaVuSans-430" x="524.365234"/>
     <use xlink:href="#DejaVuSans-440" x="585.644531"/>
     <use xlink:href="#DejaVuSans-44f" x="649.121094"/>
     <use xlink:href="#DejaVuSans-434" x="709.277344"/>
     <use xlink:href="#DejaVuSans-430" x="778.417969"/>
     <use xlink:href="#DejaVuSans-20" x="839.697266"/>
     <use xlink:href="#DejaVuSans-438" x="871.484375"/>
     <use xlink:href="#DejaVuSans-20" x="936.474609"/>
     <use xlink:href="#DejaVuSans-440" x="968.261719"/>
     <use xlink:href="#DejaVuSans-430" x="1031.738281"/>
     <use xlink:href="#DejaVuSans-437" x="1093.017578"/>
     <use xlink:href="#DejaVuSans-440" x="1146.191406"/>
     <use xlink:href="#DejaVuSans-44f" x="1209.667969"/>
     <use xlink:href="#DejaVuSans-434" x="1269.824219"/>
     <use xlink:href="#DejaVuSans-430" x="1338.964844"/>
     <use xlink:href="#DejaVuSans-20" x="1400.244141"/>
     <use xlink:href="#DejaVuSans-43a" x="1432.03125"/>
     <use xlink:href="#DejaVuSans-43e" x="1492.431641"/>
     <use xlink:href="#DejaVuSans-43d" x="1553.613281"/>
     <use xlink:href="#DejaVuSans-434" x="1618.994141"/>
     <use xlink:href="#DejaVuSans-435" x="1688.134766"/>
     <use xlink:href="#DejaVuSans-43d" x="1749.658203"/>
     <use xlink:href="#DejaVuSans-441" x="1815.039062"/>
     <use xlink:href="#DejaVuSans-430" x="1870.019531"/>
     <use xlink:href="#DejaVuSans-442" x="1931.298828"/>
     <use xlink:href="#DejaVuSans-43e" x="1989.550781"/>
     <use xlink:href="#DejaVuSans-440" x="2050.732422"/>
     <use xlink:href="#DejaVuSans-430" x="2114.208984"/>
     <use xlink:href="#DejaVuSans-20" x="2175.488281"/>
     <use xlink:href="#DejaVuSans-432" x="2207.275391"/>
     <use xlink:href="#DejaVuSans-20" x="2266.210938"/>
     <use xlink:href="#DejaVuSans-52" x="2297.998047"/>
     <use xlink:href="#DejaVuSans-43" x="2362.480469"/>
     <use xlink:href="#DejaVuSans-2d" x="2432.304688"/>
     <use xlink:href="#DejaVuSans-446" x="2468.388672"/>
     <use xlink:href="#DejaVuSans-435" x="2536.455078"/>
     <use xlink:href="#DejaVuSans-43f" x="2597.978516"/>
     <use xlink:href="#DejaVuSans-43e" x="2663.359375"/>
     <use xlink:href="#DejaVuSans-447" x="2724.541016"/>
     <use xlink:href="#DejaVuSans-43a" x="2783.623047"/>
     <use xlink:href="#DejaVuSans-435" x="2844.023438"/>
    </g>
   </g>
   <g id="legend_1">
    <g id="patch_7">
     <path d="M 979.235937 109.078125 
L 1029.8 109.078125 
Q 1031.8 109.078125 1031.8 107.078125 
L 1031.8 93.4 
Q 1031.8 91.4 1029.8 91.4 
L 979.235937 91.4 
Q 977.235937 91.4 977.235937 93.4 
L 977.235937 107.078125 
Q 977.235937 109.078125 979.235937 109.078125 
z
" style="fill: #ffffff; opacity: 0.8; stroke: #cccccc; stroke-linejoin: miter"/>
    </g>
    <g id="line2d_132">
     <path d="M 981.235937 99.498438 
L 991.235937 99.498438 
L 1001.235937 99.498438 
" style="fill: none; stroke: #ac3b61; stroke-width: 2; stroke-linecap: square"/>
     <g>
      <use xlink:href="#m388c18b4ea" x="991.235937" y="99.498438" style="fill: #123c69; stroke: #123c69"/>
     </g>
    </g>
    <g id="text_23">
     <!-- V(t) -->
     <g transform="translate(1009.235937 102.998438) scale(0.1 -0.1)">
      <defs>
       <path id="DejaVuSans-56" d="M 1831 0 
L 50 4666 
L 709 4666 
L 2188 738 
L 3669 4666 
L 4325 4666 
L 2547 0 
L 1831 0 
z
" transform="scale(0.015625)"/>
       <path id="DejaVuSans-28" d="M 1984 4856 
Q 1566 4138 1362 3434 
Q 1159 2731 1159 2009 
Q 1159 1288 1364 580 
Q 1569 -128 1984 -844 
L 1484 -844 
Q 1016 -109 783 600 
Q 550 1309 550 2009 
Q 550 2706 781 3412 
Q 1013 4119 1484 4856 
L 1984 4856 
z
" transform="scale(0.015625)"/>
       <path id="DejaVuSans-74" d="M 1172 4494 
L 1172 3500 
L 2356 3500 
L 2356 3053 
L 1172 3053 
L 1172 1153 
Q 1172 725 1289 603 
Q 1406 481 1766 481 
L 2356 481 
L 2356 0 
L 1766 0 
Q 1100 0 847 248 
Q 594 497 594 1153 
L 594 3053 
L 172 3053 
L 172 3500 
L 594 3500 
L 594 4494 
L 1172 4494 
z
" transform="scale(0.015625)"/>
       <path id="DejaVuSans-29" d="M 513 4856 
L 1013 4856 
Q 1481 4119 1714 3412 
Q 1947 2706 1947 2009 
Q 1947 1309 1714 600 
Q 1481 -109 1013 -844 
L 513 -844 
Q 928 -128 1133 580 
Q 1338 1288 1338 2009 
Q 1338 2731 1133 3434 
Q 928 4138 513 4856 
z
" transform="scale(0.015625)"/>
      </defs>
      <use xlink:href="#DejaVuSans-56"/>
      <use xlink:href="#DejaVuSans-28" x="68.408203"/>
      <use xlink:href="#DejaVuSans-74" x="107.421875"/>
      <use xlink:href="#DejaVuSans-29" x="146.630859"/>
     </g>
    </g>
   </g>
  </g>
 </g>
 <defs>
  <clipPath id="p0593d181ac">
   <rect x="144" y="86.4" width="892.8" height="554.4"/>
  </clipPath>
 </defs>
</svg>
